#!OML:ASF H:\GeneralSubjects\Female5\Project 1\Capture day 1\Session 1\Female5.ASF
:FULLY-SPECIFIED
:DEGREES
275
root -26.2044 15.2993 1.97917 -88.1162 81.7154 279.094
lowerback 5.42805 1.6168 4.20326
upperback -9.80383 3.1263 0.914079
thorax -13.6078 1.23734 -1.9002
lowerneck -23.032 9.65579 16.5639
upperneck 33.7983 11.0343 -6.28717
head 17.7748 6.09829 -3.05369
rclavicle 1.43125e-014 3.73715e-014
rhumerus -13.9723 -59.3012 -21.8875
rradius 139.867
rwrist -55.0514
rhand -29.788 -8.4478
rfingers 7.12502
rthumb -3.11277 -38.4048
lclavicle 1.43125e-014 3.73715e-014
lhumerus -44.541 15.1552 59.925
lradius 31.931
lwrist -5.2723
lhand -18.2215 37.5007
lfingers 7.12502
lthumb 8.05655 67.3272
rfemur 6.82857 3.67296 43.2017
rtibia 13.5372
rfoot -20.5309 -7.34828
rtoes -9.16603
lfemur -21.4834 -18.0464 -5.34608
ltibia 36.5805
lfoot -18.8679 22.5706
ltoes -67.6594
276
root -26.352 15.2878 2.03707 -100.397 81.5117 266.463
lowerback 6.25379 1.25782 3.87457
upperback -9.96528 2.66566 0.961389
thorax -14.3687 1.03696 -1.62316
lowerneck -23.2047 9.65209 16.5261
upperneck 33.234 11.2385 -7.06265
head 17.6101 6.03601 -3.3476
rclavicle 7.15625e-015 -5.56597e-015
rhumerus -17.802 -59.0717 -18.7499
rradius 139.524
rwrist -54.6419
rhand -30.1764 -8.46357
rfingers 7.12502
rthumb -3.48782 -38.4148
lclavicle 7.15625e-015 -5.56597e-015
lhumerus -44.7044 15.4302 60.0564
lradius 32.0716
lwrist -5.03087
lhand -18.4972 37.6879
lfingers 7.12502
lthumb 7.79044 67.5244
rfemur 5.81762 2.7938 43.3035
rtibia 13.3934
rfoot -20.0366 -8.1827
rtoes -11.0945
lfemur -22.9329 -17.2914 -4.87589
ltibia 36.0039
lfoot -20.8924 18.1764
ltoes -67.5711
277
root -26.5031 15.2748 2.10234 -112.205 80.7733 254.26
lowerback 6.91837 0.948645 3.34701
upperback -10.0325 2.24277 1.16998
thorax -14.9238 0.899667 -1.04184
lowerneck -23.6296 9.74149 15.4382
upperneck 33.0783 11.6524 -6.82847
head 17.571 6.07481 -2.94769
rclavicle 3.97569e-016 -4.77083e-015
rhumerus -21.9132 -59.109 -14.8774
rradius 138.957
rwrist -54.6113
rhand -30.3436 -9.03619
rfingers 7.12502
rthumb -3.64932 -38.9847
lclavicle 3.97569e-016 -4.77083e-015
lhumerus -44.6057 15.6902 60.6015
lradius 32.1021
lwrist -4.82532
lhand -19.0529 37.7026
lfingers 7.12502
lthumb 7.2541 67.5583
rfemur 4.72189 1.91573 43.5522
rtibia 13.2274
rfoot -19.9504 -8.76256
rtoes -9.61118
lfemur -24.3529 -16.472 -4.40957
ltibia 35.5737
lfoot -22.7355 13.9845
ltoes -67.1183
278
root -26.6444 15.2646 2.16768 -121.68 79.5231 244.44
lowerback 7.03854 0.949248 2.19304
upperback -9.8659 2.16424 1.81396
thorax -14.8645 1.04254 0.331104
lowerneck -24.1183 9.7348 13.9293
upperneck 33.0049 12.2538 -6.87342
head 17.5977 6.10557 -2.56026
rclavicle 1.70955e-014 0
rhumerus -26.3069 -59.5475 -9.72177
rradius 138.11
rwrist -54.9044
rhand -30.0203 -10.1148
rfingers 7.12502
rthumb -3.33708 -40.0684
lclavicle 1.70955e-014 0
lhumerus -43.9889 16.4125 62.0231
lradius 31.84
lwrist -5.28788
lhand -19.4465 37.3739
lfingers 7.12502
lthumb 6.87418 67.2423
rfemur 3.67937 0.817259 43.8879
rtibia 13.0067
rfoot -20.0732 -9.00638
rtoes -6.97012
lfemur -25.568 -15.6252 -4.05871
ltibia 35.6991
lfoot -23.781 10.4687
ltoes -66.2816
279
root -26.7668 15.2549 2.22806 -128.762 78.0902 237.058
lowerback 7.28316 0.702821 1.72558
upperback -10.0291 1.82878 2.06488
thorax -15.2478 0.962251 0.933105
lowerneck -23.7908 9.74343 13.5221
upperneck 32.9449 12.6409 -7.11005
head 17.5279 6.19993 -2.51448
rclavicle 1.03368e-014 -3.18055e-014
rhumerus -30.2004 -59.1654 -6.49168
rradius 137.493
rwrist -55.3563
rhand -30.1777 -10.4931
rfingers 7.12502
rthumb -3.48907 -40.4443
lclavicle 1.03368e-014 -3.18055e-014
lhumerus -44.3204 16.791 62.2711
lradius 31.8735
lwrist -5.575
lhand -19.4224 37.0606
lfingers 7.12502
lthumb 6.89746 66.9282
rfemur 2.8167 -0.313699 44.1747
rtibia 12.6607
rfoot -20.1076 -9.3461
rtoes -5.63458
lfemur -26.6152 -14.3627 -4.13826
ltibia 36.862
lfoot -25.6045 8.0881
ltoes -64.386
280
root -26.879 15.2434 2.28472 -133.967 76.5659 231.651
lowerback 7.26196 0.590725 0.998465
upperback -9.99157 1.63655 2.49905
thorax -15.2239 0.994205 1.86402
lowerneck -23.8036 9.60474 13.2292
upperneck 32.8565 12.8593 -7.79402
head 17.56 6.16483 -2.72176
rclavicle -1.98785e-015 -5.56597e-015
rhumerus -33.4992 -59.0546 -3.49163
rradius 136.776
rwrist -55.9943
rhand -31.1089 -10.3627
rfingers 7.12502
rthumb -4.38829 -40.2973
lclavicle -1.98785e-015 -5.56597e-015
lhumerus -44.391 17.6961 62.7336
lradius 31.7685
lwrist -6.42718
lhand -19.1493 36.586
lfingers 7.12502
lthumb 7.16107 66.4448
rfemur 2.11674 -1.36401 44.4851
rtibia 12.2396
rfoot -20.068 -9.84674
rtoes -4.77518
lfemur -27.501 -12.8667 -4.55067
ltibia 39.2895
lfoot -27.181 7.96005
ltoes -61.1984
281
root -26.9927 15.2289 2.34257 -137.958 74.8786 227.62
lowerback 7.45214 0.428349 0.381045
upperback -10.0006 1.40147 2.93624
thorax -15.3847 0.996606 2.74838
lowerneck -23.3769 9.47845 13.3221
upperneck 32.6628 13.1244 -8.77449
head 17.5135 6.18015 -3.12654
rclavicle 1.27222e-014 -1.51076e-014
rhumerus -36.5188 -58.9144 -0.793583
rradius 135.868
rwrist -56.7491
rhand -32.1917 -10.514
rfingers 7.12502
rthumb -5.43382 -40.4243
lclavicle 1.27222e-014 -1.51076e-014
lhumerus -44.6581 21.2296 61.4544
lradius 30.952
lwrist -10.1775
lhand -18.6114 35.6639
lfingers 7.12502
lthumb 7.68019 65.5044
rfemur 1.49624 -2.47814 44.8792
rtibia 11.9044
rfoot -19.9921 -10.3234
rtoes -4.10316
lfemur -28.1796 -11.2218 -5.00235
ltibia 42.7822
lfoot -29.0716 6.8647
ltoes -57.6676
282
root -27.1078 15.2112 2.40248 -141.262 73.0729 224.305
lowerback 7.73729 0.231805 -0.265646
upperback -10.055 1.12026 3.37586
thorax -15.6548 0.987635 3.66993
lowerneck -22.9012 9.33752 13.2632
upperneck 32.6343 13.2797 -9.30049
head 17.4626 6.20276 -3.32997
rclavicle -5.4467e-014 3.89618e-014
rhumerus -39.1918 -58.7557 1.46504
rradius 134.858
rwrist -57.5256
rhand -33.0519 -11.0148
rfingers 7.12502
rthumb -6.26433 -40.9022
lclavicle -5.4467e-014 3.89618e-014
lhumerus -45.019 20.0639 62.7637
lradius 31.3531
lwrist -8.53397
lhand -18.6266 35.7044
lfingers 7.12502
lthumb 7.66554 65.5455
rfemur 0.91731 -3.68523 45.2761
rtibia 11.5343
rfoot -19.6647 -10.8275
rtoes -4.67233
lfemur -28.6902 -9.58201 -5.4299
ltibia 46.932
lfoot -29.4018 11.3451
ltoes -59.9587
283
root -27.2177 15.1947 2.45898 -143.88 71.2738 221.731
lowerback 7.93306 0.0560778 -0.925388
upperback -10.0171 0.856108 3.8386
thorax -15.7471 0.987905 4.62696
lowerneck -22.8202 9.22652 12.8274
upperneck 32.932 13.4115 -9.2942
head 17.5775 6.22614 -3.22826
rclavicle -1.98785e-015 -1.19271e-014
rhumerus -41.2597 -58.7903 2.99077
rradius 133.865
rwrist -58.2216
rhand -33.7503 -11.5216
rfingers 7.12502
rthumb -6.93856 -41.3879
lclavicle -1.98785e-015 -1.19271e-014
lhumerus -45.3495 18.6727 64.2391
lradius 31.8755
lwrist -6.37086
lhand -18.6299 35.8781
lfingers 7.12502
lthumb 7.66237 65.7192
rfemur 0.438869 -4.9995 45.6181
rtibia 11.0909
rfoot -20.9663 -11.1622
rtoes -2.13234
lfemur -28.826 -8.02676 -5.76635
ltibia 51.2912
lfoot -30.1358 11.4096
ltoes -60.4929
284
root -27.3243 15.1821 2.50876 -145.932 69.5877 219.783
lowerback 8.07285 -0.0788984 -1.59345
upperback -9.94055 0.641075 4.30316
thorax -15.753 1.0103 5.58516
lowerneck -22.6934 9.08611 12.53
upperneck 33.2568 13.5165 -9.4268
head 17.7229 6.24166 -3.22141
rclavicle -4.37326e-015 2.78299e-014
rhumerus -42.7713 -59.0196 3.75442
rradius 132.853
rwrist -58.7106
rhand -34.3081 -12.0184
rfingers 7.12502
rthumb -7.47693 -41.8663
lclavicle -4.37326e-015 2.78299e-014
lhumerus -45.7669 19.4762 64.3502
lradius 31.8313
lwrist -6.55301
lhand -18.763 35.8474
lfingers 7.12502
lthumb 7.53394 65.6933
rfemur -0.0642955 -6.28541 45.8744
rtibia 10.8479
rfoot -21.5408 -11.3654
rtoes -0.720724
lfemur -28.5383 -6.512 -6.01075
ltibia 55.5782
lfoot -30.8075 10.4279
ltoes -61.1606
285
root -27.4307 15.1706 2.55358 -147.793 68.0032 218.055
lowerback 8.21941 -0.194108 -2.3265
upperback -9.86557 0.437855 4.74597
thorax -15.7616 1.04461 6.56051
lowerneck -22.4596 8.98879 12.2506
upperneck 33.4957 13.7047 -9.59819
head 17.8173 6.29233 -3.2156
rclavicle 2.96189e-014 -1.51076e-014
rhumerus -43.8809 -59.4046 4.12238
rradius 131.684
rwrist -59.3796
rhand -34.8944 -12.6036
rfingers 7.12502
rthumb -8.04282 -42.4306
lclavicle 2.96189e-014 -1.51076e-014
lhumerus -46.3793 20.8123 63.9904
lradius 31.7399
lwrist -7.19274
lhand -18.6343 35.5453
lfingers 7.12502
lthumb 7.65809 65.3867
rfemur -0.567702 -7.35394 46.0464
rtibia 10.7474
rfoot -22.2057 -11.5862
rtoes 0.696247
lfemur -27.8276 -4.92343 -6.23033
ltibia 59.5561
lfoot -30.7556 11.2706
ltoes -62.502
286
root -27.5322 15.1572 2.5954 -149.436 66.4964 216.577
lowerback 8.30353 -0.320892 -3.04781
upperback -9.80261 0.214371 5.14897
thorax -15.7336 1.06424 7.49315
lowerneck -22.1304 8.94558 12.0358
upperneck 33.7407 13.9723 -9.76129
head 17.9111 6.39089 -3.19922
rclavicle 9.74045e-015 4.77083e-015
rhumerus -44.603 -59.7786 4.0903
rradius 130.386
rwrist -60.5491
rhand -35.8074 -13.0303
rfingers 7.12502
rthumb -8.92399 -42.8215
lclavicle 9.74045e-015 4.77083e-015
lhumerus -47.1527 22.0989 63.364
lradius 31.677
lwrist -7.55536
lhand -17.9393 35.246
lfingers 7.12502
lthumb 8.32888 65.0618
rfemur -1.03043 -8.15145 46.2288
rtibia 10.7079
rfoot -17.956 -12.7476
rtoes -9.8962
lfemur -26.5762 -3.26655 -6.15361
ltibia 63.7406
lfoot -32.851 5.49242
ltoes -60.6668
287
root -27.6302 15.1452 2.62924 -150.62 65.0951 215.62
lowerback 8.11843 -0.393517 -3.64718
upperback -9.65654 0.081781 5.54844
thorax -15.4352 1.09481 8.32104
lowerneck -21.7714 8.83582 11.9175
upperneck 34.0133 14.1148 -9.94681
head 18.0059 6.45171 -3.24304
rclavicle 1.92821e-014 7.95139e-016
rhumerus -44.9749 -60.394 3.46361
rradius 129.145
rwrist -61.9674
rhand -36.6066 -12.7928
rfingers 7.12502
rthumb -9.69513 -42.5496
lclavicle 1.92821e-014 7.95139e-016
lhumerus -47.7899 23.397 62.6271
lradius 31.4098
lwrist -7.86469
lhand -17.832 35.231
lfingers 7.12502
lthumb 8.43248 65.0427
rfemur -1.43089 -8.79896 46.4694
rtibia 10.682
rfoot -18.5223 -13.3114
rtoes -8.11077
lfemur -24.7295 -1.64897 -5.65842
ltibia 66.8295
lfoot -33.4895 -0.498822
ltoes -57.8278
